<svg id="Layer_1" data-name="Layer 1" xmlns="http://www.w3.org/2000/svg" viewBox="0 0 962 419"><defs><style>.cls-1,.cls-2{fill:none;stroke-miterlimit:10;stroke-width:8px;}.cls-1{stroke:#ff7bac;}.cls-2{stroke:#6d6d6d;}.cls-3{fill:#7ac943;}.cls-4{fill:#3db8ec;}.cls-5{fill:#ff931e;}</style></defs><title>graph_walk</title><polyline class="cls-1" points="682 390 586 281 422 281 284 291 161 159 28 29"/><line class="cls-2" x1="415.5" y1="291.5" x2="586.5" y2="159.5"/><polyline class="cls-2" points="422.5 281.5 363.5 159.5 284.5 297.5"/><polyline class="cls-2" points="682.5 390.5 768.5 237.5 579.5 291.5"/><polyline class="cls-2" points="161 159 358.5 147.5 599.5 147.5 768.5 224.5 933.5 80.5 599.5 159.5 586.5 281.5"/><polyline class="cls-2" points="276.5 286.5 114.5 362.5 161.5 159.5"/><circle class="cls-3" cx="28.5" cy="28.5" r="28.5"/><circle class="cls-4" cx="161.5" cy="159.5" r="28.5"/><circle class="cls-4" cx="284.5" cy="291.5" r="28.5"/><circle class="cls-4" cx="422.5" cy="281.5" r="28.5"/><circle class="cls-4" cx="933.5" cy="80.5" r="28.5"/><circle class="cls-4" cx="114.5" cy="362.5" r="28.5"/><circle class="cls-4" cx="586.5" cy="281.5" r="28.5"/><circle class="cls-4" cx="768.5" cy="224.5" r="28.5"/><circle class="cls-4" cx="599.5" cy="147.5" r="28.5"/><circle class="cls-4" cx="358.5" cy="147.5" r="28.5"/><circle class="cls-5" cx="682.5" cy="390.5" r="28.5"/></svg>